<svg id="iconfinder_Close_4781838" xmlns="http://www.w3.org/2000/svg" width="19" height="18" viewBox="0 0 19 18">
  <g id="Layer_2" data-name="Layer 2" transform="translate(2.994 2.996)">
    <path id="Path_12" data-name="Path 12" d="M3.482,15.16a.5.5,0,0,1-.344-.136.456.456,0,0,1,0-.664L14.783,3.133a.5.5,0,0,1,.689,0,.458.458,0,0,1,0,.664L3.827,15.024A.5.5,0,0,1,3.482,15.16Z" transform="translate(-2.994 -2.996)" fill="#d9d3db"/>
    <path id="Path_13" data-name="Path 13" d="M15.128,15.16a.5.5,0,0,1-.344-.136L3.139,3.8a.458.458,0,0,1,0-.664.5.5,0,0,1,.689,0L15.473,14.36a.456.456,0,0,1,0,.664.5.5,0,0,1-.344.136Z" transform="translate(-2.994 -2.996)" fill="#d9d3db"/>
  </g>
  <g id="frame">
    <rect id="Rectangle_12" data-name="Rectangle 12" width="19" height="18" fill="none"/>
  </g>
</svg>
