<svg xmlns="http://www.w3.org/2000/svg" width="17.24" height="14.328" viewBox="0 0 17.24 14.328">
  <g id="Group_2" data-name="Group 2" transform="translate(-362.76 -28.336)">
    <path id="Path_9" data-name="Path 9" d="M2.3,0H14.941a2.081,2.081,0,0,1,2.3,1.748,2.081,2.081,0,0,1-2.3,1.748H2.3A2.081,2.081,0,0,1,0,1.748,2.081,2.081,0,0,1,2.3,0Z" transform="translate(362.76 33.752)" fill="#c9c9c9"/>
    <path id="Path_10" data-name="Path 10" d="M2.3,0H14.941a2.081,2.081,0,0,1,2.3,1.748,2.081,2.081,0,0,1-2.3,1.748H2.3A2.081,2.081,0,0,1,0,1.748,2.081,2.081,0,0,1,2.3,0Z" transform="translate(362.76 28.336)" fill="#c9c9c9"/>
    <path id="Path_11" data-name="Path 11" d="M2.3,0H14.941a2.081,2.081,0,0,1,2.3,1.748,2.081,2.081,0,0,1-2.3,1.748H2.3A2.081,2.081,0,0,1,0,1.748,2.081,2.081,0,0,1,2.3,0Z" transform="translate(362.76 39.169)" fill="#c9c9c9"/>
  </g>
</svg>
